
        <svg xmlns="http://www.w3.org/2000/svg" xmlns:xlink="http://www.w3.org/1999/xlink" version="1.1" width="3231.10700688873" 
        height="2561.5900678811004" viewBox="0 0 3231.10700688873 2561.5900678811004">
			<rect fill="#354056" width="3231.10700688873" height="2561.5900678811004"/>
			<g transform="scale(11.555350344436519) translate(10, 10)">
				<defs id="SvgjsDefs2099"></defs><g id="SvgjsG2100" featureKey="symbolFeature-0" transform="matrix(1.9692804746273644,0,0,1.9692804746273644,70.92158576117907,-9.846402373136822)" fill="#f4f7f7"><g xmlns="http://www.w3.org/2000/svg"><path d="M35.3899841,12.4299316c-4.1300049,0-7.9799805,2.0700684-10.3200073,5.4300537l-7.6199951-4.4100342   c0.2700195-0.6899414,0.4100342-1.4399414,0.4100342-2.2199707C17.8600159,7.8000488,15.0699768,5,11.6299744,5   s-6.2399902,2.8000488-6.2399902,6.2299805c0,3.4399414,2.7999878,6.2399902,6.2399902,6.2399902   c1.9400024,0,3.6799927-0.8900146,4.8200073-2.2900391l7.6199951,4.4100342c-0.8099976,1.6800537-1.25,3.5200195-1.25,5.4100342   c0,2.4699707,0.710022,4.8299561,2.0300293,6.8499756L14.480011,42.2099609   c-1.0200195-0.75-2.2800293-1.1799316-3.6300049-1.1799316c-3.4400024,0-6.2399902,2.7999268-6.2399902,6.2299805   c0,3.4399414,2.7999878,6.2399902,6.2399902,6.2399902s6.2299805-2.8000488,6.2299805-6.2399902   c0-1.3601074-0.4400024-2.6101074-1.1900024-3.630127l10.210022-10.1899414   c0.1099854,0.1300049,0.2199707,0.2600098,0.3399658,0.3900146l0.2000122-0.5999756   c0.9199829-2.6199951,3.3800049-4.3699951,6.1400146-4.3699951h5.2299805c2.7399902,0,5.1900024,1.7299805,6.1000366,4.3099365   l0.2799683,0.5900879c2.25-2.3100586,3.5800171-5.4500732,3.5800171-8.7600098   C47.9700012,18.0699463,42.3199768,12.4299316,35.3899841,12.4299316z M35.3899841,27.4099121   c-2.6099854,0-4.7299805-2.1298828-4.7299805-4.7399902c0-2.6099854,2.1199951-4.7299805,4.7299805-4.7299805   s4.7399902,2.1199951,4.7399902,4.7299805C40.1299744,25.2800293,37.9999695,27.4099121,35.3899841,27.4099121z"></path><path d="M55.3899841,48.7600098C55.3899841,52.1999512,52.5899963,55,49.1600037,55   c-3.4400024,0-6.2399902-2.8000488-6.2399902-6.2399902c0-1.9400635,0.8899536-3.6800537,2.289978-4.8200684l-4.4199829-7.6099854   c-1.6700439,0.7900391-3.5200195,1.2399902-5.4000244,1.2399902c-2.6599731,0-5.1900024-0.8299561-7.2999878-2.3399658   l0.4400024-1.3500977c0.6300049-1.8099365,2.3399658-3.0198975,4.25-3.0198975h5.2299805   c1.9100342,0,3.6099854,1.2099609,4.2299805,3.0100098c0.0100098,0.0299072,0.0300293,0.0699463,0.0400391,0.0999756   l0.539978,1.1500244c-0.0999756,0.0699463-0.2099609,0.1300049-0.3099976,0.2099609l4.4299927,7.6099854   c0.6900024-0.2700195,1.4400024-0.4099121,2.2200317-0.4099121C52.5899963,42.5300293,55.3899841,45.3299561,55.3899841,48.7600098   z"></path></g></g><g id="SvgjsG2101" featureKey="nameFeature-0" transform="matrix(1.3365410372611595,0,0,1.3365410372611595,26.68537883941226,103.56535781727936)" fill="#f4f7f7"><path d="M2.48 40 l0 -28 l7.76 0 l0 21.2 l13.56 0 l0 6.8 l-21.32 0 z M32.88 40.48 c-4.12 0 -7.28 -2.36 -7.28 -6.68 l0 -0.08 c0 -4.48 3.4 -6.8 8.48 -6.8 c2 0 3.96 0.4 5.2 0.84 l0 -0.36 c0 -2.24 -1.4 -3.52 -4.32 -3.52 c-2.28 0 -4.04 0.44 -5.96 1.2 l-1.56 -5.36 c2.44 -1 5.04 -1.68 8.76 -1.68 c3.88 0 6.52 0.92 8.24 2.64 c1.64 1.6 2.32 3.84 2.32 6.88 l0 12.44 l-7.52 0 l0 -2.24 c-1.48 1.64 -3.52 2.72 -6.36 2.72 z M35.6 35.72 c2.2 0 3.76 -1.4 3.76 -3.56 l0 -1 c-0.76 -0.32 -1.84 -0.56 -2.96 -0.56 c-2.2 0 -3.48 1.08 -3.48 2.68 l0 0.08 c0 1.48 1.12 2.36 2.68 2.36 z M56.04 46.519999999999996 c-2.68 0 -4.96 -0.76 -6.96 -1.88 l2.36 -5.32 c1.2 0.72 2.48 1.16 3.32 1.16 c0.76 0 1.28 -0.2 1.76 -0.88 l-8.48 -21.24 l7.96 0 l4.32 13.04 l4.08 -13.04 l7.8 0 l-7.92 21.12 c-1.88 5.04 -3.92 7.04 -8.24 7.04 z M88.88 40.48 c-3.28 0 -5.2 -1.48 -6.6 -3.12 l0 2.64 l-7.6 0 l0 -29.2 l7.6 0 l0 10.44 c1.48 -1.8 3.32 -3.36 6.56 -3.36 c5.16 0 9.6 4.28 9.6 11.2 l0 0.08 c0 7.04 -4.44 11.32 -9.56 11.32 z M86.52 34.12 c2.48 0 4.44 -2 4.44 -4.92 l0 -0.08 c0 -2.84 -1.96 -4.88 -4.44 -4.88 c-2.44 0 -4.4 2.04 -4.4 4.88 l0 0.08 c0 2.88 1.96 4.92 4.4 4.92 z M101.88000000000001 40 l0 -29.2 l7.6 0 l0 29.2 l-7.6 0 z M119.92 40.48 c-4.12 0 -7.28 -2.36 -7.28 -6.68 l0 -0.08 c0 -4.48 3.4 -6.8 8.48 -6.8 c2 0 3.96 0.4 5.2 0.84 l0 -0.36 c0 -2.24 -1.4 -3.52 -4.32 -3.52 c-2.28 0 -4.04 0.44 -5.96 1.2 l-1.56 -5.36 c2.44 -1 5.04 -1.68 8.76 -1.68 c3.88 0 6.52 0.92 8.24 2.64 c1.64 1.6 2.32 3.84 2.32 6.88 l0 12.44 l-7.52 0 l0 -2.24 c-1.48 1.64 -3.52 2.72 -6.36 2.72 z M122.64000000000001 35.72 c2.2 0 3.76 -1.4 3.76 -3.56 l0 -1 c-0.76 -0.32 -1.84 -0.56 -2.96 -0.56 c-2.2 0 -3.48 1.08 -3.48 2.68 l0 0.08 c0 1.48 1.12 2.36 2.68 2.36 z M137.68 40 l0 -21.64 l7.6 0 l0 4.36 c1.24 -2.96 3.24 -4.88 6.84 -4.72 l0 8 l-0.64 0 c-3.96 0 -6.2 2.28 -6.2 7.28 l0 6.72 l-7.6 0 z"></path></g><g id="SvgjsG2102" featureKey="sloganFeature-0" transform="matrix(1,0,0,1,-1.700000286102295,179.90000009536743)" fill="#f4f7f7"><path d="M3.5 18.28 l5.92 0 l-0.12 1.72 l-7.6 0 l0 -14 l1.8 0 l0 12.28 z M11.6 20 l0 -14 l1.8 0 l0 14 l-1.8 0 z M18.58 7.720000000000001 l0 4.32 l4.28 0 l0 1.72 l-4.28 0 l0 6.24 l-1.8 0 l0 -14 l7.96 0 l0.12 1.72 l-6.28 0 z M35.84 18.28 l0.12 1.72 l-8.52 0 l0 -14 l8.12 0 l0.14 1.72 l-6.46 0 l0 3.42 l4.38 0 l0 1.72 l-4.38 0 l0 5.42 l6.6 0 z M45.400000000000006 20 l0 -14 l1.8 0 l0 14 l-1.8 0 z M49.800000000000004 18.54 c0.88 0.82 2.7 1.66 4.52 1.66 c2.8 0 4.58 -1.44 4.58 -3.7 c0 -1.84 -0.88 -2.92 -3.92 -4.64 c-2.32 -1.34 -2.88 -1.78 -2.88 -2.66 c0 -0.94 0.88 -1.68 2.36 -1.68 c0.86 0 2 0.38 2.66 0.8 l0.96 -1.44 c-0.94 -0.62 -2.42 -1.08 -3.6 -1.08 c-2.58 0 -4.3 1.48 -4.3 3.42 c0 1.72 0.86 2.58 3.5 4.02 c2.34 1.28 3.3 2.22 3.3 3.24 c0 1.2 -1.04 1.92 -2.66 1.92 c-1.4 0 -2.8 -0.66 -3.5 -1.3 z M77.08 6 l1.8 0 l0 14 l-1.8 0 l0 -6.44 l-6.94 0 l0 6.44 l-1.8 0 l0 -14 l1.8 0 l0 5.84 l6.94 0 l0 -5.84 z M91.46000000000001 20 l-1.22 -2.84 l-6.24 0 l-1.22 2.84 l-1.92 0 l6.16 -14.2 l0.2 0 l6.16 14.2 l-1.92 0 z M84.72 15.48 l4.8 0 l-2.4 -5.54 z M105.56 11.06 c0 2.26 -1.06 4.2 -3.24 4.84 l3.02 4.1 l-2.16 0 l-2.86 -3.88 l-3.14 0 l0 3.88 l-1.8 0 l0 -14 l5.28 0 c3.3 0 4.9 2.28 4.9 5.06 z M97.18 7.68 l0 6.74 l3.4 0 c2.26 0 3.18 -1.66 3.18 -3.36 s-0.92 -3.38 -3.18 -3.38 l-3.4 0 z M113.14000000000001 6 c4.64 0 7.2 2.84 7.2 7 s-2.56 7 -7.2 7 l-4.8 0 l0 -14 l4.8 0 z M113.24000000000001 18.28 c3.4 0 5.3 -2.12 5.3 -5.28 c0 -3.18 -1.9 -5.28 -5.3 -5.28 l-3.1 0 l0 10.56 l3.1 0 z M123.60000000000002 17.759999999999998 l1.48 0 l-1.26 4.02 l-1.24 0 z M136.56 18.28 l5.92 0 l-0.12 1.72 l-7.6 0 l0 -14 l1.8 0 l0 12.28 z M153.86 20 l-1.22 -2.84 l-6.24 0 l-1.22 2.84 l-1.92 0 l6.16 -14.2 l0.2 0 l6.16 14.2 l-1.92 0 z M147.12 15.48 l4.8 0 l-2.4 -5.54 z M165.38000000000002 11.16 c1.76 0.64 2.78 2.24 2.78 4.28 c0 2.38 -1.18 4.48 -5 4.56 l-5.38 0 l0 -14 l5.6 0 c2.46 0 3.14 1.8 3.14 2.94 c0 1 -0.6 1.8 -1.14 2.22 z M163.16000000000003 7.619999999999999 l-3.58 0 l0 3.12 l3.2 0 c1.42 0 1.98 -0.72 1.98 -1.58 c0 -0.62 -0.4 -1.54 -1.6 -1.54 z M163 18.28 c2.32 0 3.32 -1.16 3.32 -2.84 c0 -1.88 -1.04 -3.2 -3.28 -3.2 l-3.46 0 l0 6.04 l3.42 0 z M172.54000000000002 18.28 l5.92 0 l-0.12 1.72 l-7.6 0 l0 -14 l1.8 0 l0 12.28 z M189.04000000000002 18.28 l0.12 1.72 l-8.52 0 l0 -14 l8.12 0 l0.14 1.72 l-6.46 0 l0 3.42 l4.38 0 l0 1.72 l-4.38 0 l0 5.42 l6.6 0 z M197.82000000000002 18.54 c0.88 0.82 2.7 1.66 4.52 1.66 c2.8 0 4.58 -1.44 4.58 -3.7 c0 -1.84 -0.88 -2.92 -3.92 -4.64 c-2.32 -1.34 -2.88 -1.78 -2.88 -2.66 c0 -0.94 0.88 -1.68 2.36 -1.68 c0.86 0 2 0.38 2.66 0.8 l0.96 -1.44 c-0.94 -0.62 -2.42 -1.08 -3.6 -1.08 c-2.58 0 -4.3 1.48 -4.3 3.42 c0 1.72 0.86 2.58 3.5 4.02 c2.34 1.28 3.3 2.22 3.3 3.24 c0 1.2 -1.04 1.92 -2.66 1.92 c-1.4 0 -2.8 -0.66 -3.5 -1.3 z M222.90000000000003 5.800000000000001 l0.22 0 l0 14.2 l-1.78 0 l0 -9.42 l-4.96 6.48 l-0.12 0 l-4.96 -6.46 l0 9.4 l-1.78 0 l0 -14.2 l0.2 0 l6.6 8.4 z M231.24 4.66 c-0.96 0 -1.76 -0.8 -1.76 -1.76 c0 -1.02 0.8 -1.8 1.76 -1.8 c1 0 1.8 0.78 1.8 1.8 c0 0.96 -0.8 1.76 -1.8 1.76 z M231.28 1.6600000000000001 c-0.68 0 -1.22 0.56 -1.22 1.2 c0 0.68 0.54 1.24 1.22 1.24 c0.62 0 1.18 -0.56 1.18 -1.24 c0 -0.64 -0.56 -1.2 -1.18 -1.2 z M235.70000000000002 20 l-1.22 -2.84 l-6.24 0 l-1.22 2.84 l-1.92 0 l6.16 -14.2 l0.2 0 l6.16 14.2 l-1.92 0 z M228.96 15.48 l4.8 0 l-2.4 -5.54 z M249.8 11.06 c0 2.26 -1.06 4.2 -3.24 4.84 l3.02 4.1 l-2.16 0 l-2.86 -3.88 l-3.14 0 l0 3.88 l-1.8 0 l0 -14 l5.28 0 c3.3 0 4.9 2.28 4.9 5.06 z M241.42000000000002 7.68 l0 6.74 l3.4 0 c2.26 0 3.18 -1.66 3.18 -3.36 s-0.92 -3.38 -3.18 -3.38 l-3.4 0 z M261.32000000000005 7.720000000000001 l-4.08 0 l0 12.28 l-1.8 0 l0 -12.28 l-4.1 0 l0.12 -1.72 l9.74 0 z"></path></g>
			</g>
		</svg>
	
